# xmcd CD database file
#
# Track frame offsets:
#	150
#	3112
#	24531
#	44459
#	57586
#	71820
#	84818
#	105242
#
# Disc length: 1516 seconds
#
# Revision: 0
# Processed by: cddbd v1.5.1PL0 Copyright (c) Steve Scherf et al.
# Submitted via: CDex 1.50beta10
#
DISCID=5905ea08
DTITLE=detune - ムシバメルモノ
DYEAR=2003
DGENRE=JPop
TTITLE0=mono omoi
TTITLE1=小春日和もどき
TTITLE2=ムシバメルモノ
TTITLE3=銀の河
TTITLE4=Photosynthesis
TTITLE5=屋根と鯨とチラリズム
TTITLE6=24
TTITLE7=end roll
EXTD=YEAR: 2003
EXTT0=
EXTT1=
EXTT2=
EXTT3=
EXTT4=
EXTT5=
EXTT6=
EXTT7=
PLAYORDER=
